<svg xmlns="http://www.w3.org/2000/svg" width="64" height="39" viewBox="0 0 64 39">
    <path fill="#1D1E1F" fill-rule="evenodd" d="M47.993 0L64 30.69h-4.53L46.37 5.574 33.12 30.69h-1.319L47.993 0zm6.02 22.567l-8.355.003c.367 1.14.553 2.318.553 3.511 0 7.042-6.443 12.785-14.419 12.916V39l-.143-.002-.134.002v-.003c-5.694-.082-10.66-2.675-13.344-6.493 1.111-.117 2.19-.343 3.225-.667 1.957 3.6 5.727 5.949 10.262 5.994 7.395-.067 13.387-5.312 13.387-11.75 0-2.646-1.085-4.68-1.085-4.68l9.444-.001.609 1.167zm-28.767-6.47s-6.744 4.1-5.009 12.609a13.406 13.406 0 0 1-3.681.558c-1.518-4.997.48-10.126 5.338-13.397-1.416-1.676-2.189-3.693-2.189-5.749 0-5.305 5.161-10.015 12.087-10.015 3.344 0 6.537 1.149 8.817 3.161l-.562 1.066c-2.079-1.945-5.088-3.06-8.255-3.06-4.84 0-8.846 3.941-8.846 8.848 0 2.021.665 3.925 1.923 5.506l.377.473zM26.87 4.118c3.208 2.878 5.23 7.053 5.23 11.691 0 8.565-6.95 15.707-15.704 15.707C7.626 31.516 0 25.072 0 15.809 0 6.556 7.618.103 16.395.103c2.456 0 4.782.567 6.854 1.577-.356.256-.696.528-1.018.815a14.448 14.448 0 0 0-5.836-1.225c-7.409 0-12.631 5.987-12.631 14.54 0 8.478 5.163 14.539 12.631 14.539 7.831 0 14.536-6.35 14.536-14.54 0-4.326-1.9-8.216-4.907-10.882.261-.29.543-.56.845-.809z"/>
</svg>
